<svg width="86" height="73" viewBox="0 0 86 73" fill="none" xmlns="http://www.w3.org/2000/svg">
<path d="M43 11.8889V69.6667" stroke="black" stroke-width="6" stroke-linecap="round"/>
<path d="M83 11.8889L83 69.6667" stroke="black" stroke-width="6" stroke-linecap="round"/>
<path d="M3 11.8889L3 69.6667" stroke="black" stroke-width="6" stroke-linecap="round"/>
<path d="M83 69.6667C83 69.6667 78.5556 60.7778 63 60.7778C47.4444 60.7778 43 69.6667 43 69.6667" stroke="black" stroke-width="6" stroke-linecap="round"/>
<path d="M43 69.6667C43 69.6667 38.5556 60.7778 23 60.7778C7.44444 60.7778 3 69.6667 3 69.6667" stroke="black" stroke-width="6" stroke-linecap="round"/>
<path d="M83 11.8889C83 11.8889 78.5556 3 63 3C47.4444 3 43 11.8889 43 11.8889" stroke="black" stroke-width="6" stroke-linecap="round"/>
<path d="M43 11.8889C43 11.8889 38.5556 3 23 3C7.44444 3 3 11.8889 3 11.8889" stroke="black" stroke-width="6" stroke-linecap="round"/>
</svg>