<svg width="93" height="61" viewBox="0 0 93 61" fill="none" xmlns="http://www.w3.org/2000/svg">
<path d="M10.9444 44.7777C13.2736 44.7777 14.6335 42.9621 15.257 41.9071C15.9993 40.6514 16.5637 39.034 16.9976 37.2983C17.8769 33.7809 18.3889 29.0805 18.3889 23.9999C18.3889 18.9193 17.8769 14.219 16.9976 10.7016C16.5637 8.9659 15.9993 7.3485 15.257 6.09274C14.6335 5.03782 13.2736 3.22217 10.9444 3.22217C8.61531 3.22217 7.25539 5.03782 6.63186 6.09274C5.88963 7.3485 5.32523 8.9659 4.89132 10.7016C4.01196 14.219 3.5 18.9193 3.5 23.9999C3.5 29.0805 4.01196 33.7809 4.89132 37.2983C5.32523 39.034 5.88963 40.6514 6.63186 41.9071C7.25539 42.9621 8.61531 44.7777 10.9444 44.7777Z" stroke="black" stroke-width="6"/>
<path d="M82.0556 44.7777C84.3257 44.7777 85.6813 43.041 86.3249 41.9747C87.0784 40.7261 87.6583 39.1002 88.1087 37.2983C89.0191 33.6568 89.5 28.8763 89.5 23.9999C89.5 19.1236 89.0191 14.343 88.1087 10.7016C87.6583 8.89968 87.0784 7.27374 86.3249 6.02523C85.6813 4.95888 84.3257 3.22217 82.0556 3.22217" stroke="black" stroke-width="6" stroke-linecap="round"/>
<path d="M82.0555 4C82.0555 4 66.5 8.44444 46.5 8.44444C26.5 8.44444 10.9444 4 10.9444 4" stroke="black" stroke-width="6" stroke-linecap="round"/>
<path d="M10.9445 44C10.9445 44 22.0751 40.8198 37.6111 39.8397M82.0556 44C82.0556 44 70.9249 40.8198 55.3889 39.8397" stroke="black" stroke-width="6" stroke-linecap="round"/>
<path d="M39.8334 8.44446V24M53.1667 8.44446V24" stroke="black" stroke-width="6" stroke-linecap="round"/>
<path d="M46.5 44.7778C53.0661 44.7778 58.3889 39.4549 58.3889 32.8889C58.3889 26.3228 53.0661 21 46.5 21C39.934 21 34.6112 26.3228 34.6112 32.8889C34.6112 39.4549 39.934 44.7778 46.5 44.7778Z" stroke="black" stroke-width="6"/>
<path d="M37.6111 39.5555L26.5 48.4444L33.1667 50.6667L37.6111 57.3333L46.5 44L55.3889 57.3333L59.8333 50.6667L66.5 48.4444L55.3889 39.5555" stroke="black" stroke-width="6" stroke-linecap="round" stroke-linejoin="round"/>
</svg>
