<svg width="39" height="38" viewBox="0 0 39 38" fill="none" xmlns="http://www.w3.org/2000/svg">
<g clip-path="url(#clip0_2_271)">
<path d="M36.1131 0H2.8793C1.2873 0 0 1.22461 0 2.73867V35.2539C0 36.768 1.2873 38 2.8793 38H36.1131C37.7051 38 39 36.768 39 35.2613V2.73867C39 1.22461 37.7051 0 36.1131 0ZM11.5705 32.3816H5.78145V14.2426H11.5705V32.3816ZM8.67598 11.7711C6.81738 11.7711 5.3168 10.309 5.3168 8.50547C5.3168 6.70195 6.81738 5.23984 8.67598 5.23984C10.527 5.23984 12.0275 6.70195 12.0275 8.50547C12.0275 10.3016 10.527 11.7711 8.67598 11.7711ZM33.2338 32.3816H27.4523V23.5645C27.4523 21.4641 27.4143 18.7551 24.4436 18.7551C21.4348 18.7551 20.9777 21.0484 20.9777 23.416V32.3816H15.2039V14.2426H20.7492V16.7215H20.8254C21.5947 15.2965 23.4838 13.7898 26.2945 13.7898C32.1522 13.7898 33.2338 17.5453 33.2338 22.4289V32.3816Z" fill="white"/>
</g>
<defs>
<clipPath id="clip0_2_271">
<rect width="39" height="38" fill="white"/>
</clipPath>
</defs>
</svg>
