<svg width="38" height="38" viewBox="0 0 38 38" fill="none" xmlns="http://www.w3.org/2000/svg">
<path d="M33.25 4.75V3.25H34.75V4.75H33.25ZM18.4773 21.644C17.8915 22.2298 16.9418 22.2298 16.356 21.644C15.7702 21.0582 15.7702 20.1085 16.356 19.5227L18.4773 21.644ZM31.75 17.4167V4.75H34.75V17.4167H31.75ZM33.25 6.25H20.5833V3.25H33.25V6.25ZM34.3107 5.81066L18.4773 21.644L16.356 19.5227L32.1893 3.68934L34.3107 5.81066Z" fill="white"/>
<path d="M31.6667 23.75V25.6667C31.6667 28.4951 31.6667 29.9093 30.7881 30.788C29.9094 31.6667 28.4952 31.6667 25.6667 31.6667H12.3334C9.50499 31.6667 8.09077 31.6667 7.21209 30.788C6.33341 29.9093 6.33341 28.4951 6.33341 25.6667V12.3333C6.33341 9.50491 6.33341 8.0907 7.21209 7.21202C8.09077 6.33334 9.50499 6.33334 12.3334 6.33334H14.2501" stroke="white" stroke-width="3" stroke-linecap="round"/>
</svg>
