<svg width="48" height="83" viewBox="0 0 48 83" fill="none" xmlns="http://www.w3.org/2000/svg">
<path d="M35.8205 34.8716C35.8205 34.8716 35.8205 53.649 35.8205 67.6985C35.8205 74.4959 30.3101 79.9998 23.5128 79.9998V79.9998C16.7154 79.9998 11.2051 74.4894 11.2051 67.6921V34.8716" stroke="black" stroke-width="6" stroke-linejoin="round"/>
<path d="M35.8205 26.6665H39.9231C42.1889 26.6665 44.0256 28.5033 44.0256 30.7691V30.7691C44.0256 33.0349 42.1889 34.8716 39.9231 34.8716H7.10256C4.83678 34.8716 3 33.0349 3 30.7691V30.7691C3 28.5033 4.83678 26.6665 7.10256 26.6665H19.4103" stroke="black" stroke-width="6" stroke-linecap="round" stroke-linejoin="round"/>
<path d="M27.6154 67.6922V55.3845H19.4103V67.6922C19.4103 69.958 21.2471 71.7948 23.5128 71.7948C25.7786 71.7948 27.6154 69.958 27.6154 67.6922Z" stroke="black" stroke-width="6" stroke-linejoin="round"/>
<circle cx="37.8718" cy="8.20513" r="5.20513" stroke="black" stroke-width="6" stroke-linejoin="round"/>
<circle cx="27.6154" cy="26.6668" r="2.05128" fill="#222222"/>
<path d="M14.3589 14.3589C14.3589 16.1007 12.9469 17.5128 11.2051 17.5128C9.46328 17.5128 8.05125 16.1007 8.05125 14.3589C8.05125 12.6171 9.46328 11.2051 11.2051 11.2051C12.9469 11.2051 14.3589 12.6171 14.3589 14.3589Z" stroke="black" stroke-width="6" stroke-linejoin="round"/>
</svg>